<mxfile host="app.diagrams.net" modified="2023-05-16T01:57:23.780Z" agent="Mozilla/5.0 (Windows NT 10.0; Win64; x64) AppleWebKit/537.36 (KHTML, like Gecko) Chrome/113.0.0.0 Safari/537.36" etag="gBDjmP2NIvqvdhG8MSrS" version="21.3.2" type="device">
  <diagram name="Página-1" id="9sSlr-PsmQRpw-tfyhZU">
    <mxGraphModel dx="1674" dy="806" grid="1" gridSize="10" guides="1" tooltips="1" connect="1" arrows="1" fold="1" page="1" pageScale="1" pageWidth="827" pageHeight="1169" math="0" shadow="0">
      <root>
        <mxCell id="0" />
        <mxCell id="1" parent="0" />
        <mxCell id="Y3WWtkGq2qKl6ApOxsDD-1" value="Actor" style="shape=umlActor;verticalLabelPosition=bottom;verticalAlign=top;html=1;outlineConnect=0;movable=1;resizable=1;rotatable=1;deletable=1;editable=1;locked=0;connectable=1;" vertex="1" parent="1">
          <mxGeometry x="80" y="160" width="110" height="180" as="geometry" />
        </mxCell>
        <mxCell id="Y3WWtkGq2qKl6ApOxsDD-2" value="Calcular el promedio de juntas realizadas en un&lt;br&gt;grupo médico laboral" style="ellipse;whiteSpace=wrap;html=1;fillColor=#CCCCFF;" vertex="1" parent="1">
          <mxGeometry x="280" y="190" width="290" height="120" as="geometry" />
        </mxCell>
        <mxCell id="Y3WWtkGq2qKl6ApOxsDD-3" value="" style="endArrow=none;html=1;rounded=0;" edge="1" parent="1" target="Y3WWtkGq2qKl6ApOxsDD-2">
          <mxGeometry width="50" height="50" relative="1" as="geometry">
            <mxPoint x="180" y="250" as="sourcePoint" />
            <mxPoint x="440" y="390" as="targetPoint" />
          </mxGeometry>
        </mxCell>
      </root>
    </mxGraphModel>
  </diagram>
</mxfile>
